<?xml version="1.0" encoding="UTF-8"?>
<svg id="Layer_2" data-name="Layer 2" xmlns="http://www.w3.org/2000/svg" viewBox="0 0 44.38 14">
  <defs>
    <style>
      .cls-1 {
        fill: #fff;
      }

      .cls-1, .cls-2 {
        stroke-width: 0px;
      }

      .cls-2 {
        fill: #d0af21;
      }
    </style>
  </defs>
  <g id="Layer_1-2" data-name="Layer 1">
    <g>
      <path class="cls-1" d="M32.4,3.56h1.24v.35h-.87v.47h.78v.35h-.78v.78h-.37v-1.95Z"/>
      <path class="cls-1" d="M34.89,3.9v.45h.78v.35h-.78v.45h.87v.35h-1.24v-1.95h1.24v.35h-.87Z"/>
      <path class="cls-1" d="M36.7,3.56h.71c.1,0,.19.01.27.05.08.03.15.07.21.13.06.05.1.12.13.2.03.07.05.16.05.25,0,.07-.01.13-.03.18s-.05.11-.09.16c-.04.05-.08.09-.13.12-.05.03-.1.06-.16.08v.02s.52.75.52.75v.02h-.42l-.5-.73h-.17v.73h-.37s0-1.95,0-1.95ZM37.41,4.44c.08,0,.15-.03.21-.08s.08-.11.08-.19c0-.03,0-.07-.02-.1s-.03-.06-.05-.09c-.02-.03-.05-.05-.09-.06s-.08-.02-.12-.02h-.35v.54h.34Z"/>
      <path class="cls-1" d="M39,3.56h.43l.78,1.31h.02l-.02-.38v-.93h.37v1.95h-.39l-.83-1.38h-.02l.02.38v1h-.36v-1.95Z"/>
      <path class="cls-1" d="M42.11,5.55c-.08,0-.16-.01-.24-.03-.08-.02-.15-.06-.21-.11-.06-.05-.12-.1-.17-.17-.05-.07-.08-.15-.11-.24l.35-.14c.03.1.07.18.13.24.06.06.15.1.25.1.04,0,.08,0,.11-.02s.07-.02.1-.04c.03-.02.05-.04.07-.07.02-.03.03-.06.03-.1,0-.04,0-.07-.02-.1-.01-.03-.03-.06-.06-.08-.03-.03-.07-.05-.12-.07-.05-.02-.11-.05-.18-.07l-.12-.04c-.05-.02-.11-.04-.16-.07-.05-.03-.1-.07-.15-.11-.04-.04-.08-.09-.11-.15s-.04-.13-.04-.2.01-.15.04-.21c.03-.07.07-.12.13-.17.06-.05.12-.09.2-.12s.16-.04.26-.04.18.01.25.04c.07.03.13.06.18.1s.09.09.12.14c.03.05.05.09.07.14l-.32.14c-.02-.05-.05-.1-.1-.15-.05-.04-.11-.07-.2-.07s-.15.02-.2.06-.08.09-.08.15.03.11.08.15.13.08.24.12l.12.04c.08.03.15.06.21.09.06.03.12.08.17.13s.08.11.11.17c.03.06.04.14.04.22,0,.1-.02.19-.06.26-.04.07-.09.13-.16.18-.06.05-.13.08-.22.11-.08.02-.16.03-.23.03Z"/>
      <path class="cls-1" d="M32.4,6.29h.43l.78,1.31h.02l-.02-.38v-.93h.37v1.95h-.39l-.83-1.38h-.02l.02.38v1h-.36v-1.95Z"/>
      <path class="cls-1" d="M32.4,10.98v-1.95h.69c.09,0,.18.02.26.05.08.03.15.07.21.13.06.05.11.12.14.19s.05.16.05.25-.02.18-.05.25c-.03.07-.08.14-.14.19-.06.05-.13.1-.21.13-.08.03-.17.05-.26.05h-.32v.72h-.37ZM33.09,9.91c.1,0,.17-.03.22-.08.05-.05.07-.12.07-.19,0-.03,0-.07-.02-.1s-.03-.06-.05-.09c-.03-.02-.06-.04-.09-.06-.04-.01-.08-.02-.13-.02h-.32v.54h.32Z"/>
      <path class="cls-1" d="M34.92,9.37v.45h.78v.35h-.78v.45h.87v.35h-1.24v-1.95h1.24v.35s-.87,0-.87,0Z"/>
      <path class="cls-1" d="M37.08,10.98v-1.6h-.54v-.35h1.46v.35h-.54v1.6h-.37Z"/>
      <path class="cls-1" d="M39.19,9.03h.42l.73,1.95h-.41l-.16-.47h-.75l-.16.47h-.4l.73-1.95ZM39.66,10.17l-.17-.49-.07-.24h-.02l-.07.24-.17.49s.51,0,.51,0Z"/>
      <path class="cls-1" d="M41.12,9.03h.37v1.6h.82v.35h-1.19v-1.95h0Z"/>
      <path class="cls-1" d="M43.71,11.02c-.08,0-.16-.01-.24-.03-.08-.02-.15-.06-.21-.11s-.12-.1-.17-.17c-.05-.07-.08-.15-.11-.24l.35-.14c.03.1.07.18.13.24.06.06.15.1.25.1.04,0,.08,0,.11-.02s.07-.02.1-.04.05-.04.07-.07c.02-.03.03-.06.03-.1,0-.04,0-.07-.02-.1-.01-.03-.03-.06-.06-.08-.03-.02-.07-.05-.12-.07s-.11-.05-.18-.07l-.12-.04c-.05-.02-.11-.04-.16-.07-.05-.03-.1-.07-.15-.11-.04-.04-.08-.1-.11-.15s-.04-.13-.04-.2.01-.15.04-.21c.03-.07.07-.12.13-.17.06-.05.12-.09.2-.12s.16-.04.26-.04.18.01.25.04c.07.03.13.06.18.1.05.04.09.09.12.14s.05.1.07.14l-.32.14c-.02-.05-.05-.1-.1-.15-.05-.04-.11-.06-.2-.06s-.15.02-.2.06-.08.09-.08.15.03.11.08.15c.05.04.13.08.24.12l.12.04c.08.03.15.06.21.09.06.03.12.08.17.13.05.05.08.1.11.17.03.06.04.14.04.22,0,.1-.02.19-.06.26-.04.07-.09.13-.16.18s-.13.08-.22.11c-.08.02-.16.04-.24.04Z"/>
      <rect class="cls-1" x="30.58" y="3.49" width=".21" height="7.48"/>
      <path class="cls-1" d="M12.55,0c.51,0,.92.09,1.24.26l-.38,1.23c-.24-.12-.52-.18-.82-.18-.34,0-.62.12-.84.36-.22.24-.33.55-.33.95v.94h1.94v1.27h-1.94v6.15h-1.39v-6.15h-1.39v-1.27h1.39v-1.08c0-.74.23-1.33.7-1.79.47-.45,1.07-.68,1.81-.68Z"/>
      <path class="cls-1" d="M14.19,3.55h1.33v1.03h.06c.21-.36.54-.67.98-.91.44-.24.9-.36,1.37-.36.91,0,1.61.26,2.1.78s.74,1.26.74,2.22v4.67h-1.39v-4.58c-.03-1.21-.64-1.82-1.83-1.82-.56,0-1.02.22-1.39.67-.37.45-.56.99-.56,1.61v4.11h-1.39V3.55h0Z"/>
      <path class="cls-1" d="M25.4,11.21c-.55,0-1.04-.12-1.49-.35-.45-.23-.8-.54-1.04-.93h-.06l.06,1.03v3.03h-1.39V3.55h1.33v1.03h.06c.24-.38.59-.69,1.04-.92s.95-.35,1.49-.35c.98,0,1.81.38,2.49,1.15.7.78,1.09,1.71,1.09,2.8s-.4,2.04-1.09,2.8c-.68.77-1.51,1.15-2.49,1.15ZM25.18,9.94c.67,0,1.23-.25,1.68-.76.45-.49.68-1.14.68-1.93s-.23-1.42-.68-1.93c-.45-.51-1.01-.76-1.68-.76s-1.24.25-1.7.76c-.44.51-.67,1.15-.67,1.93s.22,1.44.67,1.94c.45.5,1.02.74,1.7.74Z"/>
      <path class="cls-1" d="M2.27,4.77s-.55-.28-.86-.77c-.32-.49-.41-1.1-.17-1.53s.86-.44,1.38-.03c.51.41.98,1.07,1.24,1.61,0-.05.17-.93.5-1.44.33-.51.72-.94,1.33-.74.57.22.58.91.48,1.31-.1.39-.35.9-1.04,1.49,0,0,1.23-.16,1.42-.18s.48-.06.51.35c0,0,.09,1.04.1,1.23s-.03.44-.4.44-2.33-.02-3.73.02c-1.4.05-1.86.06-2.2.23-.45.28-.44,1.57-.35,2.38.09.81.18,1.19.19,1.23,0,.03.03.13.17.13.13,0,1.95.09,3.38.09s2.1-.04,2.19-.05c.1,0,.12-.03.14-.12.02-.09.04-.5.04-.81,0-.15,0-.71-.02-1.28-.02-.63-.04-1.3-.05-1.4,0,0-.01-.2.18-.22.2-.02.21.17.21.21,0,0,.06,1.19.06,1.75s.02,1.27,0,1.67c-.02.4-.16.57-.51.59-.36.02-1.69.06-3.12.03-1.42-.02-2.12-.06-2.5-.06s-.49-.16-.57-.5-.22-1.15-.21-2.03c.02-.89.09-1.42.18-1.63s.29-.44.94-.52,1.84-.1,2.68-.1c.79,0,2.65,0,2.87,0,.02,0,.02-.02.02-.02l-.09-1.21s0-.01-.02,0c-.14.03-1.26.23-2.42.3-1.24.07-2.33.02-3.73-.17,0,0-.1.99-.11,1.12s-.07.21-.22.21c-.15,0-.18-.13-.17-.23s.08-.99.12-1.19c.04-.2.14-.34.44-.29.3.05.82.13,1.71.16Z"/>
      <path class="cls-2" d="M.67,5.26s0-.04.04-.03c.04,0,.56.1,1.11.12s1.42.06,2.16.04c.74-.02,1.33-.06,1.71-.11.38-.05.73-.1.75-.1.02,0,.04,0,.04.03,0,.03.04.6.04.63,0,.03-.01.04-.06.05-.05,0-2.67-.03-3.86.02-1.19.05-1.42.08-1.89.16-.06.01-.11.03-.11-.05,0-.08.08-.77.08-.77Z"/>
      <path class="cls-2" d="M1.04,10.18c-.07-.01-.1-.03-.13-.13-.03-.1-.16-.68-.18-1.53-.02-.85.03-1.07.09-1.21.06-.14.19-.35.67-.41.48-.05,1.4-.08,1.92-.09.53,0,2.43,0,2.55,0,.12,0,.18.04.19.17.01.13.1,1.13.1,2.01,0,.31,0,.88-.01,1.01s-.03.21-.19.22c-.61.04-1.88.05-2.91.04-1.55,0-2.1-.08-2.1-.08Z"/>
    </g>
  </g>
</svg>