<?xml version="1.0" encoding="UTF-8"?>
<svg id="Layer_2" data-name="Layer 2" xmlns="http://www.w3.org/2000/svg" viewBox="0 0 28.99 14">
  <defs>
    <style>
      .cls-1 {
        fill: #fff;
      }

      .cls-1, .cls-2 {
        stroke-width: 0px;
      }

      .cls-2 {
        fill: #d0af21;
      }
    </style>
  </defs>
  <g id="Layer_1-2" data-name="Layer 1">
    <g>
      <path class="cls-1" d="M12.55,0c.51,0,.92.09,1.24.26l-.38,1.23c-.24-.12-.52-.18-.82-.18-.34,0-.62.12-.84.36-.22.24-.33.55-.33.95v.94h1.94v1.27h-1.94v6.15h-1.39v-6.15h-1.39v-1.27h1.39v-1.08c0-.74.23-1.33.7-1.79.47-.45,1.07-.68,1.81-.68Z"/>
      <path class="cls-1" d="M14.19,3.55h1.33v1.03h.06c.21-.36.54-.67.98-.91.44-.24.9-.36,1.37-.36.91,0,1.61.26,2.1.78s.74,1.26.74,2.22v4.67h-1.39v-4.58c-.03-1.21-.64-1.82-1.83-1.82-.56,0-1.02.22-1.39.67-.37.45-.56.99-.56,1.61v4.11h-1.39V3.55h0Z"/>
      <path class="cls-1" d="M25.4,11.21c-.55,0-1.04-.12-1.49-.35-.45-.23-.8-.54-1.04-.93h-.06l.06,1.03v3.03h-1.39V3.55h1.33v1.03h.06c.24-.38.59-.69,1.04-.92s.95-.35,1.49-.35c.98,0,1.81.38,2.49,1.15.7.78,1.09,1.71,1.09,2.8s-.4,2.04-1.09,2.8c-.68.77-1.51,1.15-2.49,1.15ZM25.18,9.94c.67,0,1.23-.25,1.68-.76.45-.49.68-1.14.68-1.93s-.23-1.42-.68-1.93c-.45-.51-1.01-.76-1.68-.76s-1.24.25-1.7.76c-.44.51-.67,1.15-.67,1.93s.22,1.44.67,1.94c.45.5,1.02.74,1.7.74Z"/>
      <path class="cls-1" d="M2.27,4.77s-.55-.28-.86-.77c-.32-.49-.41-1.1-.17-1.53s.86-.44,1.38-.03c.51.41.98,1.07,1.24,1.61,0-.05.17-.93.5-1.44.33-.51.72-.94,1.33-.74.57.22.58.91.48,1.31-.1.39-.35.9-1.04,1.49,0,0,1.23-.16,1.42-.18s.48-.06.51.35c0,0,.09,1.04.1,1.23s-.03.44-.4.44-2.33-.02-3.73.02c-1.4.05-1.86.06-2.2.23-.45.28-.44,1.57-.35,2.38.09.81.18,1.19.19,1.23,0,.03.03.13.17.13.13,0,1.95.09,3.38.09s2.1-.04,2.19-.05c.1,0,.12-.03.14-.12.02-.09.04-.5.04-.81,0-.15,0-.71-.02-1.28-.02-.63-.04-1.3-.05-1.4,0,0-.01-.2.18-.22.2-.02.21.17.21.21,0,0,.06,1.19.06,1.75s.02,1.27,0,1.67c-.02.4-.16.57-.51.59-.36.02-1.69.06-3.12.03-1.42-.02-2.12-.06-2.5-.06s-.49-.16-.57-.5-.22-1.15-.21-2.03c.02-.89.09-1.42.18-1.63s.29-.44.94-.52,1.84-.1,2.68-.1c.79,0,2.65,0,2.87,0,.02,0,.02-.02.02-.02l-.09-1.21s0-.01-.02,0c-.14.03-1.26.23-2.42.3-1.24.07-2.33.02-3.73-.17,0,0-.1.99-.11,1.12s-.07.21-.22.21c-.15,0-.18-.13-.17-.23s.08-.99.12-1.19c.04-.2.14-.34.44-.29.3.05.82.13,1.71.16Z"/>
      <path class="cls-2" d="M.67,5.26s0-.04.04-.03c.04,0,.56.1,1.11.12s1.42.06,2.16.04c.74-.02,1.33-.06,1.71-.11.38-.05.73-.1.75-.1.02,0,.04,0,.04.03,0,.03.04.6.04.63,0,.03-.01.04-.06.05-.05,0-2.67-.03-3.86.02-1.19.05-1.42.08-1.89.16-.06.01-.11.03-.11-.05,0-.08.08-.77.08-.77Z"/>
      <path class="cls-2" d="M1.04,10.18c-.07-.01-.1-.03-.13-.13-.03-.1-.16-.68-.18-1.53-.02-.85.03-1.07.09-1.21.06-.14.19-.35.67-.41.48-.05,1.4-.08,1.92-.09.53,0,2.43,0,2.55,0,.12,0,.18.04.19.17.01.13.1,1.13.1,2.01,0,.31,0,.88-.01,1.01s-.03.21-.19.22c-.61.04-1.88.05-2.91.04-1.55,0-2.1-.08-2.1-.08Z"/>
    </g>
  </g>
</svg>